# xmcd
#
# Track frame offsets:
# 150
# 21355
# 40467
# 63680
# 82435
# 101500
# 122545
# 141057
# 155542
# 172750
# 192107
# 220252
# 235015
# 253992
#
# Disc length: 3585 seconds
#
#
# Revision: 3
# Processed by: cddbd v1.5.1PL0 Copyright (c) Steve Scherf et al.
# Submitted via: FreeRIP 2.90 
#
DISCID=c70dff0e
DTITLE=John Mayall and The Bluesbreakers - Silver Tones
DYEAR=1998
DGENRE=Blues
TTITLE0=Mail Order Mystics
TTITLE1=Wake Up Call
TTITLE2=I Could Cry
TTITLE3=Not At Home
TTITLE4=When The Devil Starts Crying
TTITLE5=Spinning Coin
TTITLE6=Ain´t No Breakman
TTITLE7=No Big Hurry
TTITLE8=Dead City
TTITLE9=Stone Cold Deal
TTITLE10=Blues For The Lost Days
TTITLE11=I Don´t Mind
TTITLE12=Moovin´ Groovin´ Blues
TTITLE13=Fan The Flames
EXTD=
EXTT0=
EXTT1=
EXTT2=
EXTT3=
EXTT4=
EXTT5=
EXTT6=
EXTT7=
EXTT8=
EXTT9=
EXTT10=
EXTT11=
EXTT12=
EXTT13=
PLAYORDER=
